<svg width="192" height="44" viewBox="0 0 192 44" fill="none" xmlns="http://www.w3.org/2000/svg">
<path d="M19.6371 30.0162H18.1247V31.5286V36.8779C17.8799 36.7952 17.6153 36.7014 17.3338 36.5954C15.7229 35.9895 13.5817 34.997 11.4488 33.4542C7.222 30.3966 3 25.173 3 16.2989C3 8.72307 9.14141 2.5817 16.7172 2.5817H28.607C36.1828 2.5817 42.3241 8.72307 42.3241 16.2989C42.3241 23.8748 36.1828 30.0162 28.607 30.0162H19.6371Z" stroke="#029688" stroke-width="4.06197"/>
<mask id="mask0_13_46" style="mask-type:luminance" maskUnits="userSpaceOnUse" x="29" y="13" width="33" height="31">
<path fill-rule="evenodd" clip-rule="evenodd" d="M29.4445 29.522C31.1473 34.1977 35.6317 37.5364 40.8962 37.5364H45.3496V43.4183C45.3496 43.4183 61.9867 40.4774 61.9867 25.3528C61.9867 18.6238 56.5319 13.1689 49.8029 13.1689H40.8962C40.8396 13.1689 40.7832 13.1694 40.7269 13.1702C40.7829 13.7012 40.8116 14.2405 40.8116 14.7864C40.8116 21.8631 35.9852 27.8123 29.4445 29.522Z" fill="white"/>
</mask>
<g mask="url(#mask0_13_46)">
<path d="M29.4445 29.522L28.6795 26.5954L25.4654 27.4356L26.6021 30.5572L29.4445 29.522ZM45.3496 37.5364H48.3745V34.5115H45.3496V37.5364ZM45.3496 43.4183H42.3247V47.0247L45.8761 46.3971L45.3496 43.4183ZM40.7269 13.1702L40.6856 10.1454L37.3709 10.1906L37.7186 13.4875L40.7269 13.1702ZM26.6021 30.5572C28.7259 36.3891 34.3199 40.5614 40.8961 40.5614V34.5115C36.9435 34.5115 33.5684 32.0061 32.2867 28.4869L26.6021 30.5572ZM40.8961 40.5614H45.3496V34.5115H40.8961V40.5614ZM42.3247 37.5364V43.4183H48.3745V37.5364H42.3247ZM45.3496 43.4183C45.8761 46.3971 45.8775 46.3968 45.8788 46.3965C45.8794 46.3965 45.8809 46.3962 45.882 46.396C45.8843 46.3956 45.8867 46.3951 45.8894 46.3946C45.895 46.3936 45.9015 46.3925 45.9089 46.391C45.924 46.3883 45.9431 46.3848 45.9659 46.3803C46.0119 46.3715 46.0735 46.3594 46.1497 46.3437C46.3022 46.3121 46.5133 46.2659 46.7751 46.2026C47.2978 46.0763 48.0262 45.8809 48.8926 45.5965C50.6148 45.031 52.9367 44.0963 55.2829 42.6152C60.0217 39.6235 65.0117 34.2627 65.0117 25.3528H58.9618C58.9618 31.5673 55.633 35.2395 52.0533 37.4994C50.2402 38.644 48.4028 39.3897 47.0056 39.8484C46.3121 40.076 45.7409 40.2285 45.3537 40.3221C45.1605 40.3688 45.0143 40.4006 44.9231 40.4195C44.8774 40.4289 44.8455 40.4351 44.8286 40.4384C44.8201 40.4401 44.8153 40.4408 44.8142 40.4411C44.8137 40.4411 44.8142 40.4411 44.8157 40.4408C44.8165 40.4407 44.8174 40.4405 44.8186 40.4402C44.8192 40.4402 44.8202 40.4399 44.8205 40.4399C44.8218 40.4398 44.823 40.4395 45.3496 43.4183ZM65.0117 25.3528C65.0117 16.9531 58.2024 10.144 49.8029 10.144V16.1939C54.8612 16.1939 58.9618 20.2945 58.9618 25.3528H65.0117ZM49.8029 10.144H40.8961V16.1939H49.8029V10.144ZM40.8961 10.144C40.826 10.144 40.7558 10.1445 40.6856 10.1454L40.768 16.1948C40.8107 16.1942 40.8533 16.1939 40.8961 16.1939V10.144ZM37.7186 13.4875C37.7635 13.9134 37.7867 14.3467 37.7867 14.7864H43.8365C43.8365 14.1344 43.8022 13.4891 43.735 12.8527L37.7186 13.4875ZM37.7867 14.7864C37.7867 20.4533 33.9219 25.2251 28.6795 26.5954L30.2095 32.4487C38.0485 30.3996 43.8365 23.2727 43.8365 14.7864H37.7867Z" fill="#029688"/>
</g>
<path d="M81.8983 31.328C81.8983 31.504 81.8023 31.704 81.6103 31.928C81.4343 32.136 81.1943 32.24 80.8903 32.24C80.6023 32.24 80.3703 32.136 80.1943 31.928C80.0343 31.704 79.9463 31.504 79.9303 31.328C79.9303 31.152 79.9303 30.976 79.9303 30.8C79.9303 30.624 79.9463 30.024 79.9783 29C80.0103 27.96 80.0263 25.96 80.0263 23C80.0263 20.04 80.1143 18.048 80.2903 17.024C79.4423 16.96 78.5063 16.776 77.4823 16.472C75.5943 15.896 74.6503 15.272 74.6503 14.6C74.6343 14.232 74.7943 13.96 75.1303 13.784C75.2903 13.704 75.4423 13.664 75.5863 13.664C75.7463 13.664 75.9063 13.728 76.0663 13.856C76.3063 13.984 76.5143 14.112 76.6903 14.24C77.3143 14.672 78.6343 15.04 80.6503 15.344C81.0663 14.496 81.7143 13.848 82.5943 13.4C83.4743 12.936 84.4103 12.704 85.4023 12.704C86.4103 12.704 87.1863 12.928 87.7303 13.376C88.3063 13.808 88.5943 14.32 88.5943 14.912C88.5943 15.488 88.2663 16.024 87.6103 16.52C86.9543 17.016 85.7944 17.264 84.1303 17.264C83.2183 17.264 82.5063 17.24 81.9943 17.192C81.8343 17.672 81.7543 19.28 81.7543 22.016C81.7543 24.752 81.7783 26.944 81.8263 28.592C81.8743 30.24 81.8983 31.152 81.8983 31.328ZM85.2343 14.384C83.8903 14.384 82.9463 14.768 82.4023 15.536C82.8183 15.616 83.2743 15.656 83.7703 15.656C84.2663 15.656 84.8903 15.584 85.6423 15.44C86.4103 15.296 86.7943 15.112 86.7943 14.888C86.7943 14.552 86.2743 14.384 85.2343 14.384ZM98.9018 26.192C98.9018 27.36 98.9818 28.336 99.1418 29.12C99.3178 29.888 99.5338 30.32 99.7898 30.416C99.8858 30.464 99.9978 30.496 100.126 30.512C100.27 30.528 100.366 30.552 100.414 30.584C100.478 30.616 100.51 30.68 100.51 30.776C100.51 31.224 100.39 31.584 100.15 31.856C99.9098 32.112 99.5578 32.24 99.0938 32.24C98.6458 32.24 98.2938 31.952 98.0378 31.376C97.7818 30.784 97.6538 30.016 97.6538 29.072C97.2218 30 96.6218 30.76 95.8538 31.352C95.0858 31.944 94.2138 32.24 93.2378 32.24C92.2778 32.24 91.4538 31.92 90.7658 31.28C89.4858 30.096 88.8458 28.424 88.8458 26.264C88.8458 24.52 89.3498 23 90.3578 21.704C91.3658 20.408 92.6618 19.76 94.2458 19.76C95.4458 19.76 96.4858 20.168 97.3658 20.984C97.3658 20.168 97.6698 19.76 98.2778 19.76C99.0138 19.76 99.3818 20.312 99.3818 21.416C99.3818 22.504 99.2218 24.096 98.9018 26.192ZM97.5098 26.408L97.3898 22.712C96.4458 21.784 95.4458 21.32 94.3898 21.32C93.3338 21.32 92.4298 21.792 91.6778 22.736C90.9258 23.68 90.5498 24.824 90.5498 26.168C90.5498 27.496 90.7978 28.584 91.2938 29.432C91.7898 30.264 92.4778 30.68 93.3578 30.68C94.2378 30.68 95.0458 30.288 95.7818 29.504C96.5338 28.72 97.1098 27.688 97.5098 26.408ZM105.005 14.96L104.885 23L105.005 31.04C105.005 31.84 104.701 32.24 104.093 32.24C103.485 32.24 103.181 31.84 103.181 31.04L103.301 23L103.181 14.96C103.181 14.16 103.485 13.76 104.093 13.76C104.701 13.76 105.005 14.16 105.005 14.96ZM110.3 25.808L110.372 31.016C110.372 31.832 110.068 32.24 109.46 32.24C108.724 32.24 108.356 31.696 108.356 30.608C108.356 29.504 108.516 27.904 108.836 25.808C108.836 24.72 108.764 22.672 108.62 19.664C108.476 16.64 108.404 15.008 108.404 14.768C108.404 14.528 108.484 14.296 108.644 14.072C108.82 13.848 108.996 13.736 109.172 13.736C109.364 13.736 109.54 13.776 109.7 13.856C110.084 14.032 110.276 14.344 110.276 14.792C110.276 14.856 110.276 14.912 110.276 14.96V22.808C111.444 20.776 112.884 19.76 114.596 19.76C115.508 19.76 116.244 20.032 116.804 20.576C117.38 21.104 117.668 21.768 117.668 22.568C117.668 23.88 116.988 25 115.628 25.928L114.452 26.696L116.228 29.432C116.436 29.768 116.668 30.024 116.924 30.2C117.196 30.376 117.42 30.48 117.596 30.512C117.788 30.528 117.94 30.552 118.052 30.584C118.164 30.616 118.212 30.68 118.196 30.776C118.196 31.16 118.076 31.504 117.836 31.808C117.596 32.096 117.308 32.24 116.972 32.24C116.908 32.24 116.78 32.24 116.588 32.24C116.188 32.24 115.692 31.752 115.1 30.776C115.084 30.728 115.06 30.688 115.028 30.656C115.012 30.624 114.724 30.16 114.164 29.264C113.604 28.352 113.164 27.672 112.844 27.224C112.428 27.224 112.084 27.112 111.812 26.888C111.54 26.664 111.404 26.344 111.404 25.928C111.404 25.512 111.636 25.208 112.1 25.016C112.228 24.968 112.356 24.944 112.484 24.944C112.852 24.944 113.244 25.144 113.66 25.544C114.268 25.272 114.804 24.856 115.268 24.296C115.748 23.736 115.988 23.232 115.988 22.784C115.988 21.824 115.492 21.344 114.5 21.344C113.604 21.344 112.756 21.792 111.956 22.688C111.156 23.584 110.604 24.624 110.3 25.808ZM131.109 21.512L129.117 21.464L129.069 27.152C129.069 28.624 129.125 29.584 129.237 30.032C129.349 30.464 129.669 30.68 130.197 30.68C130.453 30.68 130.757 30.6 131.109 30.44C131.461 30.264 131.677 30.176 131.757 30.176C132.093 30.176 132.261 30.344 132.261 30.68C132.261 31.016 131.965 31.36 131.373 31.712C130.781 32.064 130.197 32.24 129.621 32.24C128.229 32.24 127.533 31.216 127.533 29.168L127.509 21.464C126.981 21.512 126.613 21.536 126.405 21.536C125.605 21.536 125.205 21.272 125.205 20.744C125.205 20.216 125.605 19.952 126.405 19.952L127.461 20L127.413 17.312C127.413 16.512 127.717 16.112 128.325 16.112C128.933 16.112 129.237 16.512 129.237 17.312L129.165 20.024L131.109 19.928C131.909 19.928 132.309 20.2 132.309 20.744C132.309 21.256 131.909 21.512 131.109 21.512ZM135.619 26.024C135.619 27.352 135.987 28.48 136.723 29.408C137.459 30.336 138.379 30.8 139.483 30.8C140.603 30.8 141.547 30.336 142.315 29.408C143.099 28.464 143.491 27.328 143.491 26C143.491 24.672 143.115 23.544 142.363 22.616C141.627 21.672 140.707 21.2 139.603 21.2C138.515 21.2 137.571 21.672 136.771 22.616C136.003 23.56 135.619 24.696 135.619 26.024ZM135.499 30.536C134.443 29.304 133.915 27.8 133.915 26.024C133.915 24.248 134.451 22.744 135.523 21.512C136.595 20.264 137.947 19.64 139.579 19.64C141.211 19.64 142.555 20.256 143.611 21.488C144.667 22.704 145.195 24.208 145.195 26C145.195 27.776 144.651 29.28 143.563 30.512C142.491 31.744 141.139 32.36 139.507 32.36C137.891 32.36 136.555 31.752 135.499 30.536ZM171.062 24.44L170.942 28.208V29.24C170.974 29.896 171.134 30.288 171.422 30.416C171.534 30.448 171.662 30.48 171.806 30.512C171.95 30.528 172.046 30.552 172.094 30.584C172.158 30.616 172.19 30.68 172.19 30.776C172.19 31.192 172.054 31.544 171.782 31.832C171.526 32.104 171.222 32.24 170.87 32.24C170.278 32.24 169.862 32.008 169.622 31.544C169.382 31.08 169.262 30.368 169.262 29.408L169.358 24.992C169.358 23.888 169.142 23.008 168.71 22.352C168.278 21.68 167.686 21.344 166.934 21.344C166.182 21.344 165.446 21.8 164.726 22.712C164.006 23.624 163.502 24.656 163.214 25.808L163.286 31.016C163.286 31.832 162.982 32.24 162.374 32.24C161.638 32.24 161.27 31.696 161.27 30.608C161.27 29.504 161.43 27.904 161.75 25.808C161.75 22.832 160.934 21.344 159.302 21.344C158.55 21.344 157.814 21.8 157.094 22.712C156.374 23.624 155.87 24.656 155.582 25.808L155.654 31.016C155.654 31.832 155.35 32.24 154.742 32.24C154.006 32.24 153.638 31.696 153.638 30.608C153.638 29.504 153.798 27.904 154.118 25.808C154.118 25.136 154.046 24.192 153.902 22.976C153.774 21.76 153.71 21.024 153.71 20.768C153.71 20.512 153.798 20.28 153.974 20.072C154.15 19.864 154.374 19.76 154.646 19.76C154.918 19.76 155.142 19.864 155.318 20.072C155.494 20.28 155.582 20.504 155.582 20.744C155.582 20.984 155.574 21.344 155.558 21.824C155.558 22.304 155.558 22.632 155.558 22.808C156.63 20.776 157.99 19.76 159.638 19.76C160.566 19.76 161.326 20.032 161.918 20.576C162.526 21.12 162.95 21.864 163.19 22.808C164.262 20.776 165.622 19.76 167.27 19.76C168.486 19.76 169.414 20.216 170.054 21.128C170.726 22.04 171.062 23.144 171.062 24.44ZM180.661 21.2C179.605 21.2 178.717 21.6 177.997 22.4C177.293 23.184 176.829 24.104 176.605 25.16C177.469 25.416 178.437 25.544 179.509 25.544C180.597 25.544 181.469 25.36 182.125 24.992C182.781 24.624 183.109 24.12 183.109 23.48C183.109 22.84 182.885 22.304 182.437 21.872C182.005 21.424 181.413 21.2 180.661 21.2ZM179.629 27.056C178.797 27.056 177.781 26.936 176.581 26.696C176.677 27.832 177.093 28.8 177.829 29.6C178.581 30.4 179.453 30.8 180.445 30.8C181.437 30.8 182.253 30.56 182.893 30.08C183.533 29.584 183.949 29.336 184.141 29.336C184.349 29.336 184.509 29.4 184.621 29.528C184.749 29.64 184.813 29.784 184.813 29.96C184.813 30.408 184.349 30.92 183.421 31.496C182.509 32.072 181.517 32.36 180.445 32.36C178.781 32.36 177.453 31.776 176.461 30.608C175.485 29.424 174.965 28.016 174.901 26.384C174.053 26.112 173.629 25.696 173.629 25.136C173.629 24.768 173.765 24.528 174.037 24.416C174.133 24.384 174.253 24.368 174.397 24.368C174.557 24.368 174.773 24.44 175.045 24.584C175.413 23.128 176.077 21.944 177.037 21.032C178.013 20.104 179.149 19.64 180.445 19.64C181.757 19.64 182.813 20 183.613 20.72C184.413 21.44 184.813 22.384 184.813 23.552C184.813 24.704 184.317 25.576 183.325 26.168C182.333 26.76 181.101 27.056 179.629 27.056ZM187.791 31.064C187.791 30.68 187.903 30.344 188.127 30.056C188.367 29.752 188.647 29.6 188.967 29.6C189.303 29.6 189.559 29.72 189.735 29.96C189.911 30.184 189.999 30.496 189.999 30.896C189.999 31.28 189.879 31.624 189.639 31.928C189.415 32.216 189.143 32.36 188.823 32.36C188.503 32.36 188.247 32.24 188.055 32C187.879 31.744 187.791 31.432 187.791 31.064ZM189.687 20.768L189.759 25.856C189.759 26.656 189.471 27.056 188.895 27.056C188.319 27.056 188.031 26.656 188.031 25.856L188.103 20.768C188.103 19.68 188.071 18.464 188.007 17.12C187.959 15.776 187.935 15.056 187.935 14.96C187.935 14.16 188.255 13.76 188.895 13.76C189.535 13.76 189.855 14.16 189.855 14.96C189.855 15.216 189.823 16.016 189.759 17.36C189.711 18.704 189.687 19.84 189.687 20.768Z" fill="white"/>
</svg>
