<svg width="38" height="29" viewBox="0 0 38 29" fill="none" xmlns="http://www.w3.org/2000/svg">
<path d="M35.8336 4.8815C35.2862 4.63504 34.6785 4.55487 34.0859 4.65096C33.4934 4.74705 32.9421 5.01517 32.5007 5.42198L28.6272 9.02519V6.41286C28.6272 4.97942 28.0578 3.60469 27.0442 2.59109C26.0306 1.57749 24.6558 1.00806 23.2224 1.00806H7.00799C5.57454 1.00806 4.19981 1.57749 3.18621 2.59109C2.17261 3.60469 1.60318 4.97942 1.60318 6.41286V20.8257C1.60318 22.2591 2.17261 23.6339 3.18621 24.6475C4.19981 25.6611 5.57454 26.2305 7.00799 26.2305H23.2224C24.6558 26.2305 26.0306 25.6611 27.0442 24.6475C28.0578 23.6339 28.6272 22.2591 28.6272 20.8257V18.2134L32.5187 21.8166C33.0916 22.3351 33.8358 22.6239 34.6085 22.6273C35.0374 22.6263 35.4611 22.5342 35.8516 22.357C36.383 22.1421 36.8382 21.7736 37.1591 21.2987C37.48 20.8237 37.6521 20.2639 37.6532 19.6907V7.54787C37.6506 6.9726 37.4759 6.41126 37.1517 5.93609C36.8274 5.46091 36.3684 5.09363 35.8336 4.8815ZM25.024 20.8257C25.024 21.3035 24.8342 21.7617 24.4963 22.0996C24.1585 22.4375 23.7002 22.6273 23.2224 22.6273H7.00799C6.53017 22.6273 6.07193 22.4375 5.73406 22.0996C5.3962 21.7617 5.20638 21.3035 5.20638 20.8257V6.41286C5.20638 5.93505 5.3962 5.4768 5.73406 5.13894C6.07193 4.80107 6.53017 4.61126 7.00799 4.61126H23.2224C23.7002 4.61126 24.1585 4.80107 24.4963 5.13894C24.8342 5.4768 25.024 5.93505 25.024 6.41286V20.8257ZM34.032 18.3034L28.9695 13.6193L34.032 8.93511V18.3034Z" fill="white"/>
<rect x="31.8449" width="4.63265" height="40.0314" rx="2" transform="rotate(52.4128 31.8449 0)" fill="white"/>
</svg>
